<svg width="68" height="68" viewBox="0 0 68 68" xmlns="http://www.w3.org/2000/svg">
  <!-- Background -->
  <rect width="68" height="68" fill="#000"/>

  <!-- Diamonds -->
  <g fill="#fff">
    <!-- 12x12 squares rotated 45° around their centers -->
    <!-- row 1 -->
    <rect x="10" y="10" width="12" height="12" transform="rotate(45 16 16)"/>
    <rect x="28" y="10" width="12" height="12" transform="rotate(45 34 16)"/>
    <rect x="46" y="10" width="12" height="12" transform="rotate(45 52 16)"/>
    <!-- row 2 -->
    <rect x="10" y="28" width="12" height="12" transform="rotate(45 16 34)"/>
    <rect x="28" y="28" width="12" height="12" transform="rotate(45 34 34)"/>
    <rect x="46" y="28" width="12" height="12" transform="rotate(45 52 34)"/>
    <!-- row 3 -->
    <rect x="10" y="46" width="12" height="12" transform="rotate(45 16 52)"/>
    <rect x="28" y="46" width="12" height="12" transform="rotate(45 34 52)"/>
    <rect x="46" y="46" width="12" height="12" transform="rotate(45 52 52)"/>
  </g>
</svg>
